Coordinates
version=1
nRows=12
nColumns=24
inDegrees=yes

Units are S.I. units (second, meters, Newtons, ...)
Angles are in degrees.

endheader
time	pelvis_tilt	pelvis_list	pelvis_rotation	pelvis_tx	pelvis_ty	pelvis_tz	hip_flexion_r	hip_adduction_r	hip_rotation_r	knee_angle_r	ankle_angle_r	subtalar_angle_r	mtp_angle_r	hip_flexion_l	hip_adduction_l	hip_rotation_l	knee_angle_l	ankle_angle_l	subtalar_angle_l	mtp_angle_l	lumbar_extension	lumbar_bending	lumbar_rotation
      0.01000000	     60.76686597	      4.66390621	      8.99608617	      0.77187792	      1.08398635	     -0.27503967	     -2.72809395	    -11.95082555	     -3.69064197	    -52.92389697	    -16.58024685	      1.16413669	     50.66931556	     16.07006866	    -13.30617403	     15.32562442	    -15.44489597	    -20.19944951	     12.03100151	    -35.34633207	      0.00000000	      0.00000000	      0.00000000
      0.02000000	     60.76843664	      4.66235030	      9.00046720	      0.77187265	      1.08398470	     -0.27502540	     -2.72706162	    -11.94704338	     -3.70208007	    -52.93436762	    -16.56808501	      1.15410502	     50.65326483	     16.06094026	    -13.30854348	     15.32324265	    -15.41585491	    -20.20427618	     12.02502574	    -35.32576158	      0.00000000	      0.00000000	      0.00000000
      0.03000000	     60.77109136	      4.66285537	      9.00091665	      0.77187216	      1.08398103	     -0.27501715	     -2.72771194	    -11.94690147	     -3.70594484	    -52.93952268	    -16.55922836	      1.15015447	     50.63721654	     16.05611246	    -13.30691465	     15.32426742	    -15.40035799	    -20.20964919	     12.02256989	    -35.30606044	      0.00000000	      0.00000000	      0.00000000
      0.04000000	     60.77431451	      4.66438753	      8.99896864	      0.77187455	      1.08397516	     -0.27500920	     -2.72936578	    -11.94904003	     -3.70504077	    -52.94116070	    -16.55306203	      1.15054355	     50.62223229	     16.05390990	    -13.30310846	     15.32852752	    -15.39419294	    -20.21547024	     12.02210588	    -35.28696944	      0.00000000	      0.00000000	      0.00000000
      0.05000000	     60.77749115	      4.66586428	      8.99593478	      0.77187378	      1.08396878	     -0.27499896	     -2.73147298	    -11.95176186	     -3.70249081	    -52.94100901	    -16.54896077	      1.15328271	     50.60979067	     16.05283561	    -13.29881893	     15.33556598	    -15.39274999	    -20.22141752	     12.02191218	    -35.26858967	      0.00000000	      0.00000000	      0.00000000
      0.06000000	     60.78031865	      4.66671491	      8.99259431	      0.77186898	      1.08396377	     -0.27499076	     -2.73386512	    -11.95366688	     -3.70061352	    -52.94010573	    -16.54645268	      1.15669454	     50.60148714	     16.05220522	    -13.29522769	     15.34457776	    -15.39228572	    -20.22691954	     12.02052962	    -35.25154910	      0.00000000	      0.00000000	      0.00000000
      0.07000000	     60.78299118	      4.66680181	      8.98952217	      0.77186698	      1.08395991	     -0.27498679	     -2.73672758	    -11.95431327	     -3.70023574	    -52.93873198	    -16.54524744	      1.15973193	     50.59871758	     16.05201061	    -13.29290288	     15.35446036	    -15.39057194	    -20.23125587	     12.01705323	    -35.23692968	      0.00000000	      0.00000000	      0.00000000
      0.08000000	     60.78582815	      4.66615955	      8.98734003	      0.77187057	      1.08395765	     -0.27498264	     -2.74038075	    -11.95421300	     -3.70089289	    -52.93679997	    -16.54516436	      1.16199378	     50.60240069	     16.05223400	    -13.29182357	     15.36404266	    -15.38698951	    -20.23377314	     12.01127492	    -35.22600493	      0.00000000	      0.00000000	      0.00000000
      0.09000000	     60.78883802	      4.66510173	      8.98643118	      0.77187312	      1.08396031	     -0.27497580	     -2.74505245	    -11.95406150	     -3.70171849	    -52.93434914	    -16.54603269	      1.16350508	     50.61277902	     16.05240285	    -13.29150659	     15.37248171	    -15.38202049	    -20.23411522	     12.00368704	    -35.21986988	      0.00000000	      0.00000000	      0.00000000
      0.10000000	     60.79187240	      4.66428856	      8.98656646	      0.77186963	      1.08396949	     -0.27496940	     -2.75069043	    -11.95412380	     -3.70216884	    -52.93178222	    -16.54763521	      1.16442350	     50.62933065	     16.05182728	    -13.29124824	     15.37963573	    -15.37631855	    -20.23233502	     11.99533628	    -35.21906633	      0.00000000	      0.00000000	      0.00000000
      0.11000000	     60.79500021	      4.66438475	      8.98697985	      0.77186410	      1.08398064	     -0.27496539	     -2.75689981	    -11.95437052	     -3.70208008	    -52.92975834	    -16.54972358	      1.16484313	     50.65080851	     16.05010823	    -13.29051268	     15.38613546	    -15.37001152	    -20.22886025	     11.98751862	    -35.22330787	      0.00000000	      0.00000000	      0.00000000
      0.12000000	     60.79845919	      4.66561600	      8.98676147	      0.77186238	      1.08398835	     -0.27495999	     -2.76310277	    -11.95489192	     -3.70138324	    -52.92893189	    -16.55207363	      1.16478701	     50.67540272	     16.04737407	    -13.28924332	     15.39300818	    -15.36270897	    -20.22437124	     11.98137558	    -35.23138931	      0.00000000	      0.00000000	      0.00000000
